# xmcd
#
# Track frame offsets: 
#        150
#        12898
#        33768
#        46748
#        63645
#        79885
#        96669
#        116600
#        132888
#        150213
#        167338
#        185330
#        199868
#        213605
#        228980
#
# Disc length: 3236 seconds
#
# Revision: 0
# Processed by: cddbd v1.5PL3 Copyright (c) Steve Scherf et al.
# Submitted via: ExactAudioCopy v0.95a4
#
DISCID=be0ca20f
DTITLE=Gunter Gabriel - Gunter Gabriel
DYEAR=2003
DGENRE=Country
TTITLE0=Hey Boﬂ, ich brauch' mehr Geld
TTITLE1=Er ist ein Kerl (der 30-Tonner Diesel)
TTITLE2=Papa trinkt Bier
TTITLE3=Komm unter meine Decke
TTITLE4=Willy Klein, der Fernsehmann
TTITLE5=Ich schlaf' nicht gern allein
TTITLE6=M‰dchen ab 30
TTITLE7=ich bin CB-Funker
TTITLE8=Mit dem Hammer in der Hand
TTITLE9=Hey Lisa (Hey Yvonne)
TTITLE10=Intercity Linie Nummer 4
TTITLE11=Deutschland ist...
TTITLE12=Ohne Moos nichts los
TTITLE13=Ich werd' gesucht in Bremerhaven
TTITLE14=Morgen
EXTD=
EXTT0=
EXTT1=
EXTT2=
EXTT3=
EXTT4=
EXTT5=
EXTT6=
EXTT7=
EXTT8=
EXTT9=
EXTT10=
EXTT11=
EXTT12=
EXTT13=
EXTT14=
PLAYORDER=
